<?xml version="1.0" encoding="UTF-8"?>
<svg width="49px" height="45px" viewBox="0 0 49 45" version="1.1" xmlns="http://www.w3.org/2000/svg" xmlns:xlink="http://www.w3.org/1999/xlink">
    <!-- Generator: Sketch 63.1 (92452) - https://sketch.com -->
    <title>Artboard</title>
    <desc>Created with Sketch.</desc>
    <g id="Artboard" stroke="none" stroke-width="1" fill="none" fill-rule="evenodd">
        <g id="ipc_white" fill="#FFFFFF" fill-rule="nonzero">
            <path d="M0,33.6607776 L0,24.644871 C0,24.1922891 0,23.7397073 0,23.2871254 C0,22.8345436 0,22.6082527 0.0602557742,22.2747713 C0.120511548,21.94129 0.0602557742,21.8817397 0.0602557742,21.6792689 L0.168716168,20.8098354 C0.168716168,20.5359043 0.253074251,20.2619731 0.301278871,19.988042 C0.34948349,19.7141109 0.469995038,19.1305185 0.566404277,18.7136668 C0.7471716,17.9633338 0.952041232,17.2368208 1.20511548,16.5103079 C1.56019774,15.4664301 1.98699814,14.4477361 2.4825379,13.4613355 C3.20028912,12.0670767 4.05608615,10.7465483 5.03738272,9.51910947 C5.76828109,8.58314698 6.57429939,7.70690824 7.44761369,6.89889882 C8.61123315,5.75160543 9.89140203,4.72589213 11.2678298,3.83801638 C12.347791,3.14573235 13.4845811,2.54415291 14.6662554,2.03959907 C15.7208445,1.56668774 16.8082045,1.16867734 17.9200672,0.84859423 C18.7154435,0.634213359 19.5108197,0.455562633 20.3302982,0.312642052 C20.7480716,0.241181761 21.169862,0.181631519 21.5956695,0.133991325 C21.9451529,0.133991325 22.3066876,0.0506209866 22.6682222,0.0268008898 L23.5720589,0.0268008898 C24.2263391,-0.00893362993 24.8821168,-0.00893362993 25.5363971,0.0268008898 L25.7412667,0.0268008898 L26.8138195,0.0982611803 C27.2235588,0.0982611803 27.633298,0.193541568 28.018935,0.241181761 C28.4045719,0.288821955 28.8263624,0.372192294 29.2240505,0.455562633 C30.1499823,0.642694643 31.0635398,0.885313603 31.9596626,1.18207559 C33.5955115,1.69285577 35.1711808,2.3756368 36.659613,3.21869386 C37.7461537,3.81966226 38.7854776,4.50045065 39.7688109,5.25531214 C40.6175679,5.91422442 41.4226348,6.62632254 42.1790419,7.38721081 C42.9324626,8.17062164 43.6329408,9.00214902 44.2759429,9.87641093 C44.9932615,10.8340298 45.6339153,11.8454809 46.1920765,12.9015632 C46.8618456,14.1403522 47.4184066,15.4357463 47.8551358,16.772329 C48.0600055,17.3916515 48.2287216,18.0347941 48.3853867,18.6660267 C48.5420517,19.2972592 48.6264097,19.737931 48.7107678,20.2738832 C48.7951259,20.8098354 48.8192282,21.0123062 48.8674328,21.3815177 C48.899421,21.5746679 48.919543,21.7695554 48.9276886,21.9651101 L49,22.7035331 L49,22.7869034 C49,23.2752154 49,23.7635274 49,24.2518394 L49,44.9157734 C49,44.9401117 48.9897266,44.9633439 48.9711921,44.9793717 C48.9526576,44.9953994 48.9279615,45.0026221 48.9035863,44.9991437 L35.0688606,44.9991437 C35.0688606,44.9991437 35.0688606,44.9991437 35.0688606,44.9157734 L35.0688606,24.1208288 C35.063285,22.1702387 34.4856145,20.2630796 33.4058012,18.6302965 C32.2351248,16.8041225 30.5098127,15.3908402 28.4768789,14.5927901 C27.2021409,14.0855483 25.8378823,13.8345163 24.4638443,13.8543671 C19.8439088,13.8919381 15.7880521,16.9006279 14.4613858,21.2743273 C14.321271,21.746442 14.2165442,22.2281178 14.1480558,22.7154431 C14.0651007,23.2474222 14.0248048,23.7850472 14.0275442,24.3232996 L14.0275442,44.9395935 C14.0051724,44.9523586 13.9776091,44.9523586 13.9552373,44.9395935 L0.072306929,44.9395935 C0.072306929,44.9395935 0.072306929,44.9395935 0,44.8681332 L0,33.6607776 Z" id="Path"></path>
        </g>
    </g>
</svg>